<svg xmlns="http://www.w3.org/2000/svg" version="1.1" xmlns:xlink="http://www.w3.org/1999/xlink" xmlns:svgjs="http://svgjs.dev/svgjs" width="1000" height="1000" viewBox="0 0 1000 1000"><rect width="1000" height="1000" fill="#ffffff"></rect><g transform="matrix(0.7,0,0,0.7,149.5757577310938,418.6155314558904)"><svg viewBox="0 0 396 92" data-background-color="#ffffff" preserveAspectRatio="xMidYMid meet" height="232" width="1000" xmlns="http://www.w3.org/2000/svg" xmlns:xlink="http://www.w3.org/1999/xlink"><g id="tight-bounds" transform="matrix(1,0,0,1,0.23999991212406258,0.10450188459412857)"><svg viewBox="0 0 395.52 91.79099623081176" height="91.79099623081176" width="395.52"><g><svg viewBox="0 0 555.3681187669628 128.88802815648083" height="91.79099623081176" width="395.52"><g transform="matrix(1,0,0,1,159.8481187669628,17.813034282118558)"><svg viewBox="0 0 395.52 93.26195959224371" height="93.26195959224371" width="395.52"><g id="textblocktransform"><svg viewBox="0 0 395.52 93.26195959224371" height="93.26195959224371" width="395.52" id="textblock"><g><svg viewBox="0 0 395.52 93.26195959224371" height="93.26195959224371" width="395.52"><g transform="matrix(1,0,0,1,0,0)"><svg width="395.52" viewBox="0.73 -36.67 219.277297160481 51.709999999999994" height="93.26195959224371" data-palette-color="#1dd3b0"><path d="M24.17-22.71L24.17-22.71Q23.78-19.14 23.39-15.63 23-12.11 22.85-8.59L22.85-8.59Q22.61-4.54 22.66-0.93 22.71 2.69 22.71 6.74L22.71 6.74Q22.71 7.71 22.68 9.13 22.66 10.55 22.31 11.87 21.97 13.18 21.22 14.11 20.46 15.04 18.95 15.04L18.95 15.04Q18.21 15.04 17.7 14.6 17.19 14.16 16.82 13.45 16.46 12.74 16.24 11.87 16.02 10.99 15.87 10.06L15.87 10.06Q15.63 8.15 15.6 6.27 15.58 4.39 15.58 3.52L15.58 3.52 15.58-0.29 15.58-3.03Q14.45-1.56 12.67-0.81 10.89-0.05 9.13-0.05L9.13-0.05Q6.93-0.05 5.35-1.1 3.76-2.15 2.73-3.78 1.71-5.42 1.22-7.37 0.73-9.33 0.73-11.18L0.73-11.18 0.73-11.47Q0.73-14.01 1.51-16.97 2.29-19.92 3.83-22.46 5.37-25 7.69-26.68 10.01-28.37 13.09-28.37L13.09-28.37Q14.75-28.37 16.14-27.69 17.53-27 18.12-25.44L18.12-25.44Q18.51-26.56 19.31-27.27 20.12-27.98 21.39-27.98L21.39-27.98Q23-27.98 23.66-26.93 24.32-25.88 24.32-24.61L24.32-24.61Q24.32-24.07 24.27-23.63 24.22-23.19 24.17-22.71ZM12.94-21.53L12.94-21.53Q11.82-21.53 10.84-20.63 9.86-19.73 9.13-18.43 8.4-17.14 7.98-15.67 7.57-14.21 7.57-13.09L7.57-13.09Q7.57-12.4 7.69-11.62 7.81-10.84 8.08-10.13 8.35-9.42 8.81-8.96 9.28-8.5 10.01-8.5L10.01-8.5Q10.64-8.5 11.5-8.81 12.35-9.13 13.18-9.64 14.01-10.16 14.65-10.79 15.28-11.43 15.53-12.01L15.53-12.01Q15.67-12.35 15.77-13.04 15.87-13.72 15.94-14.48 16.02-15.23 16.06-15.97 16.11-16.7 16.11-17.09L16.11-17.09Q16.11-17.68 15.84-18.43 15.58-19.19 15.14-19.9 14.7-20.61 14.11-21.07 13.53-21.53 12.94-21.53ZM47.9-13.96L47.9-13.96Q47.9-11.28 47.36-8.64 46.82-6.01 45.55-3.93 44.28-1.86 42.16-0.59 40.04 0.68 36.86 0.68L36.86 0.68Q33.74 0.68 31.64-0.56 29.54-1.81 28.29-3.86 27.05-5.91 26.54-8.5 26.02-11.08 26.02-13.77L26.02-13.77Q26.02-16.7 26.71-19.58L26.71-19.58Q26.85-20.36 27.27-21.75 27.68-23.14 28.34-24.49 29-25.83 29.86-26.81 30.71-27.78 31.74-27.78L31.74-27.78Q32.71-27.78 33.3-27.25 33.88-26.71 34.23-25.9 34.57-25.1 34.67-24.19 34.76-23.29 34.76-22.56L34.76-22.56Q34.76-21.44 34.59-20.36 34.42-19.29 34.23-18.21L34.23-18.21Q34.03-16.75 33.86-15.28 33.69-13.82 33.69-12.35L33.69-12.35Q33.69-11.62 33.76-10.72 33.84-9.81 34.13-8.98 34.42-8.15 34.96-7.59 35.5-7.03 36.47-7.03L36.47-7.03Q37.74-7.03 38.5-7.71 39.26-8.4 39.62-9.42 39.99-10.45 40.09-11.62 40.18-12.79 40.18-13.77L40.18-13.77Q40.18-15.92 39.89-17.99 39.6-20.07 39.35-22.22L39.35-22.22Q39.3-22.46 39.3-22.9L39.3-22.9Q39.3-23.63 39.55-24.37 39.79-25.1 40.23-25.68 40.67-26.27 41.31-26.64 41.94-27 42.72-27L42.72-27Q43.8-27 44.63-26.25 45.46-25.49 46.02-24.29 46.58-23.1 46.95-21.61 47.31-20.12 47.53-18.68 47.75-17.24 47.82-15.97 47.9-14.7 47.9-13.96ZM58.93-34.08L58.93-34.08Q58.93-33.4 58.56-32.86 58.2-32.32 57.61-31.91 57.03-31.49 56.34-31.27 55.66-31.05 55.07-31.05L55.07-31.05Q54.1-31.05 53.36-31.54 52.63-32.03 52.63-33.06L52.63-33.06Q52.63-33.79 53-34.35 53.36-34.91 53.9-35.28 54.44-35.64 55.12-35.84 55.81-36.04 56.44-36.04L56.44-36.04Q57.37-36.04 58.15-35.6 58.93-35.16 58.93-34.08ZM59.32-17.48L59.32-17.48Q59.32-16.8 59.32-16.04 59.32-15.28 59.27-14.6L59.27-14.6Q59.22-13.77 59.22-12.38 59.22-10.99 59.13-9.38 59.03-7.76 58.81-6.1 58.59-4.44 58.1-3.08 57.61-1.71 56.81-0.85 56 0 54.78 0.05L54.78 0.05Q53.85 0.1 53.22-0.68 52.58-1.46 52.17-2.71 51.75-3.96 51.56-5.49 51.36-7.03 51.26-8.47 51.17-9.91 51.17-11.13 51.17-12.35 51.17-12.94L51.17-12.94Q51.17-13.72 51.17-15.16 51.17-16.6 51.26-18.26 51.36-19.92 51.63-21.63 51.9-23.34 52.41-24.76 52.92-26.17 53.75-27.05 54.58-27.93 55.85-27.93L55.85-27.93Q57.17-27.93 57.86-26.61 58.54-25.29 58.88-23.54 59.22-21.78 59.27-20.04 59.32-18.31 59.32-17.48ZM84.71-4.59L84.71-4.59Q84.71-3.61 83.9-2.88 83.1-2.15 81.85-1.56 80.61-0.98 79.02-0.59 77.43-0.2 75.9 0.05 74.36 0.29 72.99 0.42 71.62 0.54 70.79 0.54L70.79 0.54Q69.96 0.54 68.47 0.49 66.98 0.44 65.52 0.12 64.06-0.2 62.98-0.9 61.91-1.61 61.91-2.88L61.91-2.88Q61.91-3.86 62.59-5.27 63.27-6.69 64.35-8.35 65.42-10.01 66.74-11.74 68.06-13.48 69.33-15.09 70.6-16.7 71.72-18.04 72.84-19.38 73.48-20.26L73.48-20.26Q72.8-20.12 71.75-19.85 70.7-19.58 69.57-19.34 68.45-19.09 67.4-18.92 66.35-18.75 65.62-18.75L65.62-18.75Q65.03-18.75 64.3-18.97 63.57-19.19 62.91-19.58 62.25-19.97 61.78-20.51 61.32-21.04 61.32-21.73L61.32-21.73Q61.32-22.61 62.1-23.36 62.88-24.12 64.15-24.73 65.42-25.34 66.98-25.81 68.55-26.27 70.06-26.59 71.57-26.9 72.94-27.05 74.31-27.2 75.14-27.2L75.14-27.2Q76.07-27.2 77.39-27 78.7-26.81 79.95-26.32 81.19-25.83 82.07-25 82.95-24.17 82.95-22.9L82.95-22.9Q82.95-22.51 82.88-22.19 82.81-21.88 82.71-21.48L82.71-21.48Q82.61-21.14 81.85-19.95 81.1-18.75 80-17.11 78.9-15.48 77.6-13.6 76.31-11.72 75.14-10.06 73.97-8.4 73.09-7.13 72.21-5.86 71.92-5.42L71.92-5.42Q73.92-5.96 75.99-6.32 78.07-6.69 80.12-6.69L80.12-6.69Q80.61-6.69 81.39-6.64 82.17-6.59 82.9-6.37 83.64-6.15 84.17-5.74 84.71-5.32 84.71-4.59ZM115.32-16.11L115.32-16.11Q115.32-15.19 115.32-13.6 115.32-12.01 115.25-10.16 115.18-8.3 114.93-6.42 114.69-4.54 114.17-3.03 113.66-1.51 112.88-0.54 112.1 0.44 110.88 0.44L110.88 0.44Q109.8 0.44 109.24-0.46 108.68-1.37 108.44-2.59 108.19-3.81 108.17-5.08 108.14-6.35 108.14-7.08L108.14-7.08Q108.14-9.28 108.29-11.38 108.44-13.48 108.44-15.67L108.44-15.67Q108.44-15.92 108.44-16.55 108.44-17.19 108.34-17.82 108.24-18.46 108.02-18.95 107.8-19.43 107.36-19.43L107.36-19.43Q106.48-19.43 105.95-18.53 105.41-17.63 105.07-16.41 104.73-15.19 104.58-13.99 104.43-12.79 104.38-12.21L104.38-12.21Q104.29-11.57 104.21-10.3 104.14-9.03 104.02-7.52 103.9-6.01 103.63-4.42 103.36-2.83 102.94-1.54 102.53-0.24 101.89 0.59 101.26 1.42 100.33 1.42L100.33 1.42Q99.16 1.42 98.53 0.39 97.89-0.63 97.6-2 97.3-3.37 97.23-4.79 97.16-6.2 97.16-6.98L97.16-6.98Q97.16-7.81 97.18-8.59 97.21-9.38 97.21-10.21L97.21-10.21Q97.21-10.55 97.21-11.33 97.21-12.11 97.18-13.06 97.16-14.01 97.08-15.04 97.01-16.06 96.87-16.92 96.72-17.77 96.43-18.31 96.13-18.85 95.74-18.85L95.74-18.85Q95.11-18.85 94.57-18.04 94.03-17.24 93.64-16.14 93.25-15.04 93.03-13.96 92.81-12.89 92.81-12.4L92.81-12.4 92.81-12.11Q92.81-9.77 93.11-7.52 93.4-5.27 93.4-2.93L93.4-2.93Q93.4-1.56 92.52-0.42 91.64 0.73 90.08 0.73L90.08 0.73Q88.95 0.73 88.22-0.12 87.49-0.98 87-2.34 86.51-3.71 86.24-5.35 85.98-6.98 85.88-8.57 85.78-10.16 85.76-11.45 85.73-12.74 85.73-13.38L85.73-13.38Q85.73-14.11 85.71-15.53 85.68-16.94 85.76-18.6 85.83-20.26 86.03-22 86.22-23.73 86.66-25.15 87.1-26.56 87.81-27.47 88.52-28.37 89.64-28.37L89.64-28.37Q90.91-28.37 91.71-27.69 92.52-27 92.52-25.63L92.52-25.63Q92.52-25.34 92.49-25.05 92.47-24.76 92.42-24.51L92.42-24.51Q92.96-25.29 93.74-26.1 94.52-26.9 95.42-27.56 96.33-28.22 97.35-28.64 98.38-29.05 99.4-29.05L99.4-29.05Q100.38-29.05 101.16-28.52 101.94-27.98 102.53-27.17 103.12-26.37 103.51-25.44 103.9-24.51 104.04-23.68L104.04-23.68Q104.53-24.56 105.24-25.46 105.95-26.37 106.78-27.05 107.61-27.73 108.61-28.17 109.61-28.61 110.68-28.61L110.68-28.61Q111.71-28.61 112.44-27.88 113.17-27.15 113.71-26 114.25-24.85 114.54-23.41 114.83-21.97 115.03-20.58 115.22-19.19 115.27-17.99 115.32-16.8 115.32-16.11ZM139.29-6.88L139.29-6.88Q139.29-6.01 139.22-4.59 139.15-3.17 138.81-1.83 138.46-0.49 137.73 0.49 137 1.46 135.68 1.46L135.68 1.46Q133.87 1.46 132.9 0.29 131.92-0.88 131.97-2.64L131.97-2.64Q130.41-1.27 128.43-0.49 126.45 0.29 124.4 0.29L124.4 0.29Q122.99 0.29 121.72-0.39 120.45-1.07 119.47-2.15 118.49-3.22 117.91-4.57 117.32-5.91 117.32-7.23L117.32-7.23Q117.32-9.57 118.76-11.33 120.2-13.09 122.3-14.33 124.4-15.58 126.77-16.31 129.14-17.04 130.99-17.29L130.99-17.29Q130.99-17.53 131.02-17.72 131.04-17.92 131.04-18.16L131.04-18.16Q131.04-19.68 130.21-20.61 129.38-21.53 127.87-21.53L127.87-21.53Q126.65-21.53 125.77-21.12 124.89-20.7 124.11-20.19 123.33-19.68 122.55-19.26 121.76-18.85 120.79-18.85L120.79-18.85Q119.71-18.85 118.96-19.53 118.2-20.21 118.2-21.29L118.2-21.29Q118.2-22.9 119.15-24.22 120.1-25.54 121.55-26.44 122.99-27.34 124.67-27.86 126.35-28.37 127.77-28.37L127.77-28.37Q129.09-28.37 130.41-28.05 131.73-27.73 132.9-27.08 134.07-26.42 135.02-25.46 135.97-24.51 136.56-23.24L136.56-23.24Q137.44-21.44 137.98-19.41 138.51-17.38 138.81-15.26 139.1-13.13 139.2-11.01 139.29-8.89 139.29-6.88ZM131.48-8.45L131.48-8.45 131.34-11.77Q131.24-11.77 131.14-11.79 131.04-11.82 130.94-11.82L130.94-11.82Q130.31-11.82 129.36-11.5 128.41-11.18 127.53-10.62 126.65-10.06 126.04-9.38 125.43-8.69 125.43-7.96L125.43-7.96Q125.43-7.28 125.92-7.03 126.4-6.79 127.04-6.79L127.04-6.79Q128.11-6.79 129.33-7.35 130.55-7.91 131.48-8.45ZM156.53-26.86L156.53-26.86Q156.53-25.44 155.58-24.76 154.62-24.07 153.45-23.46 152.28-22.85 151.33-22.02 150.38-21.19 150.38-19.53L150.38-19.53Q150.38-18.65 150.79-18.02 151.21-17.38 151.82-16.87 152.43-16.36 153.16-15.82 153.89-15.28 154.5-14.6 155.11-13.92 155.53-12.94 155.94-11.96 155.94-10.55L155.94-10.55Q155.94-8.5 154.89-6.52 153.84-4.54 152.21-3 150.57-1.46 148.52-0.54 146.47 0.39 144.47 0.39L144.47 0.39Q143.64 0.39 142.81 0.27 141.98 0.15 141.32-0.2 140.66-0.54 140.22-1.15 139.78-1.76 139.78-2.73L139.78-2.73Q139.78-4.1 140.32-4.86 140.85-5.62 141.68-6.05 142.51-6.49 143.47-6.74 144.42-6.98 145.25-7.35 146.08-7.71 146.62-8.3 147.15-8.89 147.15-9.96L147.15-9.96Q147.15-10.99 146.35-12.08 145.54-13.18 144.57-14.43 143.59-15.67 142.78-17.09 141.98-18.51 141.98-20.21L141.98-20.21Q141.98-22.31 142.83-24.1 143.69-25.88 145.13-27.2 146.57-28.52 148.42-29.27 150.28-30.03 152.33-30.03L152.33-30.03Q153.11-30.03 153.87-29.88 154.62-29.74 155.21-29.37 155.8-29 156.16-28.39 156.53-27.78 156.53-26.86ZM169.86 1.76L169.86 1.76Q166.39 1.76 164.46 0.85 162.53-0.05 161.58-1.71 160.63-3.37 160.43-5.71 160.24-8.06 160.24-10.94L160.24-10.94Q160.24-13.23 160.38-15.55 160.53-17.87 160.82-20.51L160.82-20.51Q160.14-20.51 159.75-20.48 159.36-20.46 159.11-20.46L159.11-20.46Q157.55-20.46 156.4-21.14 155.26-21.83 155.26-23.24L155.26-23.24Q155.26-24.12 155.92-24.8 156.57-25.49 157.6-25.98 158.63-26.46 159.82-26.76 161.02-27.05 162.09-27.15L162.09-27.15Q162.09-28.52 162.29-30.18 162.48-31.84 163-33.28 163.51-34.72 164.39-35.69 165.27-36.67 166.63-36.67L166.63-36.67Q167.41-36.67 168.02-36.21 168.63-35.74 169.03-35.03 169.42-34.33 169.61-33.45 169.81-32.57 169.81-31.74L169.81-31.74Q169.81-30.76 169.66-29.74 169.51-28.71 169.12-27.2L169.12-27.2Q169.95-27.29 170.25-27.32 170.54-27.34 170.78-27.34L170.78-27.34Q171.61-27.34 172.52-27.2 173.42-27.05 174.18-26.71 174.93-26.37 175.42-25.81 175.91-25.24 175.91-24.46L175.91-24.46Q175.91-23.58 175.2-22.9 174.49-22.22 173.42-21.73 172.35-21.24 171.13-20.97 169.9-20.7 168.83-20.61L168.83-20.61Q168.54-18.6 168.42-16.92 168.29-15.23 168.15-13.53L168.15-13.53Q168.05-12.7 167.98-11.84 167.9-10.99 167.9-10.11L167.9-10.11Q167.9-9.47 167.95-8.62 168-7.76 168.29-6.98 168.59-6.2 169.22-5.64 169.86-5.08 170.98-5.08L170.98-5.08Q171.66-5.08 172.39-5.2 173.13-5.32 173.86-5.32L173.86-5.32Q175.13-5.32 175.69-4.44 176.25-3.56 176.25-2.2L176.25-2.2Q176.25-1.17 175.64-0.42 175.03 0.34 174.1 0.81 173.18 1.27 172.03 1.51 170.88 1.76 169.86 1.76ZM197.69-8.69L197.69-8.69Q197.69-7.03 196.64-5.44 195.59-3.86 194-2.61 192.41-1.37 190.61-0.61 188.8 0.15 187.28 0.15L187.28 0.15Q184.7 0.15 182.67-1.15 180.64-2.44 179.28-4.44 177.91-6.45 177.2-8.86 176.49-11.28 176.49-13.57L176.49-13.57Q176.49-16.02 177.18-18.8 177.86-21.58 179.25-23.93 180.64-26.27 182.77-27.83 184.89-29.39 187.82-29.39L187.82-29.39Q189.48-29.39 191-28.83 192.51-28.27 193.63-27.25 194.76-26.22 195.44-24.8 196.12-23.39 196.12-21.63L196.12-21.63Q196.12-19.34 195.15-17.33 194.17-15.33 192.56-13.87 190.95-12.4 188.85-11.5 186.75-10.6 184.55-10.5L184.55-10.5Q184.75-9.08 185.7-8.45 186.65-7.81 187.97-7.81L187.97-7.81Q188.94-7.81 189.87-8.3 190.8-8.79 191.68-9.4 192.56-10.01 193.41-10.5 194.27-10.99 195.15-10.99L195.15-10.99Q196.12-10.99 196.9-10.35 197.69-9.72 197.69-8.69ZM189.77-20.65L189.77-20.65Q189.77-21.29 189.43-21.97 189.09-22.66 188.36-22.66L188.36-22.66Q187.28-22.66 186.55-22.09 185.82-21.53 185.33-20.68 184.84-19.82 184.57-18.85 184.31-17.87 184.26-17.04L184.26-17.04Q184.94-17.19 185.89-17.43 186.85-17.68 187.7-18.09 188.55-18.51 189.16-19.14 189.77-19.78 189.77-20.65ZM216.58-18.26L216.58-18.26Q215.9-18.21 215.41-18.38 214.92-18.55 214.43-18.75L214.43-18.75Q213.99-18.95 213.55-19.12 213.11-19.29 212.58-19.24L212.58-19.24Q211.6-19.19 210.84-18.7 210.08-18.21 209.47-17.48 208.86-16.75 208.42-15.84 207.99-14.94 207.74-14.06L207.74-14.06Q207.59-13.48 207.52-12.28 207.45-11.08 207.45-9.72L207.45-9.72Q207.4-8.3 207.4-7.03 207.4-5.76 207.3-5.03L207.3-5.03Q207.25-4.25 207.06-3.2 206.86-2.15 206.45-1.22 206.03-0.29 205.35 0.34 204.67 0.98 203.59 0.98L203.59 0.98Q202.76 0.98 202.15 0.49 201.54 0 201.12-0.81 200.71-1.61 200.44-2.69 200.17-3.76 200.03-4.88L200.03-4.88Q199.88-6.05 199.81-7.23 199.73-8.4 199.71-9.45 199.68-10.5 199.71-11.38 199.73-12.26 199.73-12.79L199.73-12.79Q199.68-14.5 199.56-16.24 199.44-17.97 199.44-19.68L199.44-19.68Q199.44-20.75 199.54-22.07 199.64-23.39 200.08-24.54 200.51-25.68 201.37-26.46 202.22-27.25 203.74-27.25L203.74-27.25Q204.57-27.25 205.15-26.71 205.74-26.17 206.11-25.39 206.47-24.61 206.67-23.73 206.86-22.85 206.91-22.12L206.91-22.12Q208.08-24.02 209.55-25.22 211.01-26.42 213.36-26.51L213.36-26.51Q214.53-26.56 215.68-26.29 216.82-26.03 217.78-25.42 218.73-24.8 219.34-23.83 219.95-22.85 220-21.53L220-21.53Q220.09-19.97 219.07-19.14 218.04-18.31 216.58-18.26Z" opacity="1" transform="matrix(1,0,0,1,0,0)" fill="#000000" class="wordmark-text-0" data-fill-palette-color="primary" id="text-0"></path></svg></g></svg></g></svg></g></svg></g><g><svg viewBox="0 0 137.83120839426428 128.88802815648083" height="128.88802815648083" width="137.83120839426428"><g><svg xmlns="http://www.w3.org/2000/svg" xmlns:xlink="http://www.w3.org/1999/xlink" version="1.1" x="0" y="0" viewBox="0.7999999999999947 3.9846856285307686 98.40000000000002 92.01531437146923" enable-background="new 0 0 100 100" xml:space="preserve" height="128.88802815648083" width="137.83120839426428" class="icon-icon-0" data-fill-palette-color="accent" id="icon-0"><path d="M46 78.2v-2.3c0-0.8 0.6-1.4 1.4-1.4H51c0.8 0 1.4 0.6 1.4 1.4v2.3c0 0.8-0.6 1.4-1.4 1.4h-3.6C46.6 79.6 46 79 46 78.2zM57 53.7c-1.7-1.5-4.1-2.3-7.2-2.3-2.8 0-5.1 0.7-6.8 2-1.5 1.2-2.4 2.8-2.5 5 0 0.5 0.4 0.9 0.9 1l4.1 0.1c0.7 0 1.3-0.4 1.5-1 0.1-0.5 0.4-0.9 0.8-1.3 0.6-0.5 1.3-0.8 2.1-0.8 1.1 0 1.9 0.3 2.4 1 0.6 0.6 0.9 1.5 0.9 2.6 0 1-0.2 1.9-0.7 2.7-0.5 0.8-1.2 1.5-2 2-1.7 1.2-2.8 2.2-3.4 3.1-0.5 0.7-0.8 1.7-0.9 2.9-0.1 0.6 0.4 1.1 1 1.1h4.5c0.5 0 0.9-0.4 1-0.9 0.1-0.6 0.2-1.2 0.4-1.6 0.3-0.6 0.8-1.2 1.7-1.7 1.5-0.8 2.7-1.8 3.6-3.2 1-1.3 1.4-2.8 1.4-4.4C59.6 57.3 58.7 55.2 57 53.7zM67.3 35.5c0-1-0.4-2-1.2-2.6-4.4-3.6-9.2-6-10.1-6.5-0.1-0.1-0.2-0.2-0.2-0.3v-3.4c0.5-0.9 0.9-1.8 1-2.7 0.4 0 0.9-0.6 1.4-2.4 0.7-2.6 0-3-0.7-2.9 0.1-0.4 0.2-0.7 0.3-1.1 1.1-6.7-2.2-6.9-2.2-6.9s-0.5-1-2-1.8c-1-0.6-2.3-1-4.1-0.9-0.6 0-1.1 0.1-1.6 0.3l0 0c-0.6 0.2-1.2 0.5-1.8 0.9-0.7 0.4-1.3 0.9-1.8 1.5-0.9 0.9-1.6 2-2 3.5-0.3 1.1-0.2 2.2 0 3.4h0c0.1 0.4 0.2 0.7 0.3 1.1-0.7-0.1-1.4 0.3-0.7 2.9 0.5 1.9 1 2.4 1.4 2.4 0.1 0.9 0.5 1.8 1 2.7v3.4c0 0.1-0.1 0.2-0.2 0.3-1 0.5-5.7 2.9-10.1 6.5-0.8 0.6-1.2 1.6-1.2 2.6v4.9h15 4.5 15V35.5zM87.9 82c-0.1-0.1-0.2-0.2-0.2-0.3v-3.4c0.5-0.9 0.9-1.8 1-2.7 0.4 0 0.9-0.6 1.4-2.4 0.7-2.6 0-3-0.7-2.9 0.1-0.4 0.2-0.7 0.3-1.1 1.1-6.7-2.2-6.9-2.2-6.9s-0.5-1-2-1.8c-1-0.6-2.3-1-4.1-0.9-0.6 0-1.1 0.1-1.6 0.3l0 0c-0.6 0.2-1.2 0.5-1.8 0.9-0.7 0.4-1.3 0.9-1.8 1.5-0.9 0.9-1.6 2-2 3.5-0.3 1.1-0.2 2.2 0 3.4h0c0.1 0.4 0.2 0.7 0.3 1.1-0.7-0.1-1.4 0.3-0.7 2.9 0.5 1.9 1 2.4 1.4 2.4 0.1 0.9 0.5 1.8 1 2.7v3.4c0 0.1-0.1 0.2-0.2 0.3-1 0.5-5.7 2.9-10.1 6.5-0.8 0.6-1.2 1.6-1.2 2.6V96h15 4.5 15v-4.9c0-1-0.4-2-1.2-2.6C93.6 84.9 88.9 82.5 87.9 82zM20.3 96h15v-4.9c0-1-0.4-2-1.2-2.6-4.4-3.6-9.2-6-10.1-6.5-0.1-0.1-0.2-0.2-0.2-0.3v-3.4c0.5-0.9 0.9-1.8 1-2.7 0.4 0 0.9-0.6 1.4-2.4 0.7-2.6 0-3-0.7-2.9 0.1-0.4 0.2-0.7 0.3-1.1 1.1-6.7-2.2-6.9-2.2-6.9s-0.5-1-2-1.8c-1-0.6-2.3-1-4.1-0.9-0.6 0-1.1 0.1-1.6 0.3l0 0c-0.6 0.2-1.2 0.5-1.8 0.9-0.7 0.4-1.3 0.9-1.8 1.5-0.9 0.9-1.6 2-2 3.5-0.3 1.1-0.2 2.2 0 3.4h0c0.1 0.4 0.2 0.7 0.3 1.1-0.7-0.1-1.4 0.3-0.7 2.9 0.5 1.9 1 2.4 1.4 2.4 0.1 0.9 0.5 1.8 1 2.7v3.4c0 0.1-0.1 0.2-0.2 0.3-1 0.5-5.7 2.9-10.1 6.5-0.8 0.6-1.2 1.6-1.2 2.6V96h15H20.3z" fill="#000000" data-fill-palette-color="accent"></path></svg></g></svg></g></svg></g><defs></defs></svg><rect width="395.52" height="91.79099623081176" fill="none" stroke="none" visibility="hidden"></rect></g></svg></g></svg>